<?xml version="1.0" encoding="UTF-8" standalone="no"?>
<!-- Created with Inkscape (http://www.inkscape.org/) -->

<svg
   width="147.02721mm"
   height="107.3893mm"
   viewBox="0 0 147.0272 107.3893"
   version="1.1"
   id="svg5"
   xml:space="preserve"
   xmlns="http://www.w3.org/2000/svg"
   xmlns:svg="http://www.w3.org/2000/svg"><defs
     id="defs2"><filter
       style="color-interpolation-filters:sRGB"
       id="filter1583"
       x="-0.04604483"
       y="-0.049022537"
       width="1.0920887"
       height="1.0982693"><feGaussianBlur
         stdDeviation="0.62330012"
         id="feGaussianBlur1585" /></filter><filter
       style="color-interpolation-filters:sRGB"
       id="filter1587"
       x="-0.045790572"
       y="-0.049138997"
       width="1.0915821"
       height="1.0984992"><feGaussianBlur
         stdDeviation="0.62577905"
         id="feGaussianBlur1589" /></filter></defs><g
     id="layer1"
     transform="translate(1.0456417,12.368229)"><path
       style="fill:none;stroke:#3d3330;stroke-width:2.273;stroke-linejoin:bevel;stroke-dasharray:none;stroke-opacity:1;filter:url(#filter1583)"
       d="m 89.378526,91.393712 c 7.343191,0.14848 14.535854,1.8523 22.191944,0.10859 5.8875,-0.74207 8.77908,-1.52115 16.68837,-6.17975 4.1137,-2.95714 8.43031,-6.99024 11.14354,-10.98763 1.99911,-3.01488 3.86086,-7.52666 3.94701,-11.55351 -6.42937,-2.3912 -12.79513,-5.07084 -19.88402,-4.4707 -6.65435,0.30373 -12.27203,2.69717 -17.9311,5.00718 -4.07065,2.7875 -8.414783,5.23044 -11.184754,9.65665 -3.68959,4.94754 -5.41444,9.89509 -7.10143,14.84264 4.84238,-0.72702 9.336891,-3.90851 13.847784,-6.97425 4.95049,-4.60978 9.29993,-9.37102 11.53982,-14.66381 3.16007,-5.96446 3.55253,-11.78844 4.43839,-17.42544 0.51211,-3.70242 0.11508,-7.09938 -1.42027,-10.11394 -4.98669,0.34655 -9.11097,2.24547 -12.40691,4.97779 -5.368483,3.1157 -8.572834,8.28364 -11.560424,13.79906 -4.21703,7.68957 -5.3572,15.37912 -5.50361,23.06869"
       id="path5213-3-8" /><path
       style="fill:none;stroke:#3d3330;stroke-width:2.273;stroke-linejoin:bevel;stroke-dasharray:none;stroke-opacity:1;filter:url(#filter1587)"
       d="m 55.984302,91.485192 c -7.400476,0.14846 -14.64925,1.85212 -22.365059,0.10858 -5.933416,-0.742 -8.84756,-1.52101 -16.818537,-6.17916 -4.145773,-2.95685 -8.4960701,-6.98956 -11.2304611,-10.98657 -2.01469,-3.01457 -3.890973,-7.52592 -3.977781,-11.55239 6.479505,-2.39096 12.8949181,-5.07034 20.0391021,-4.47025 6.706257,0.30369 12.367756,2.6969 18.070972,5.00668 4.102405,2.78723 8.480426,5.22994 11.27199,9.65572 3.71837,4.94707 5.456658,9.89413 7.156826,14.8412 -4.880159,-0.72696 -9.409717,-3.90813 -13.955808,-6.97357 -4.989096,-4.60934 -9.372478,-9.37011 -11.629824,-14.66239 -3.184715,-5.96388 -3.580246,-11.7873 -4.473009,-17.42375 -0.516104,-3.70206 -0.115943,-7.0987 1.431348,-10.11296 5.025592,0.34652 9.18204,2.24525 12.503683,4.9773 5.410368,3.11541 8.639701,8.28285 11.650593,13.79773 4.249931,7.68882 5.398993,15.37763 5.546548,23.06645"
       id="path5213-3" /><text
       xml:space="preserve"
       style="font-style:normal;font-variant:normal;font-weight:normal;font-stretch:normal;font-size:33.2756px;font-family:Gabriola;-inkscape-font-specification:'Gabriola, Normal';font-variant-ligatures:normal;font-variant-caps:normal;font-variant-numeric:normal;font-variant-east-asian:normal;fill:#e8a38b;fill-opacity:1;stroke:#e8a38b;stroke-width:0.917042;stroke-linejoin:bevel;stroke-opacity:1"
       x="83.552109"
       y="79.79071"
       id="text5147"
       transform="scale(0.85353435,1.171599)"><tspan
         id="tspan5145"
         style="font-style:normal;font-variant:normal;font-weight:normal;font-stretch:normal;font-size:33.2756px;font-family:Gabriola;-inkscape-font-specification:'Gabriola, Normal';font-variant-ligatures:normal;font-variant-caps:normal;font-variant-numeric:normal;font-variant-east-asian:normal;fill:#e8a38b;fill-opacity:1;stroke:#e8a38b;stroke-width:0.917042;stroke-opacity:1"
         x="83.552109"
         y="79.79071">A</tspan></text><text
       xml:space="preserve"
       style="font-style:normal;font-variant:normal;font-weight:normal;font-stretch:normal;font-size:33.2756px;font-family:Gabriola;-inkscape-font-specification:'Gabriola, Normal';font-variant-ligatures:normal;font-variant-caps:normal;font-variant-numeric:normal;font-variant-east-asian:normal;fill:#e8a38b;fill-opacity:1;stroke:#e8a38b;stroke-width:0.916647;stroke-linejoin:bevel;stroke-dasharray:none;stroke-opacity:1"
       x="72.543945"
       y="79.839417"
       id="text5093"
       transform="scale(0.85353435,1.171599)"><tspan
         id="tspan11823"
         x="72.543945"
         y="79.839417">P</tspan></text><path
       style="fill:none;stroke:#3d3330;stroke-width:2.273;stroke-linejoin:bevel;stroke-dasharray:none;stroke-opacity:1;filter:url(#filter1583)"
       d="m 56.570172,62.289527 c 7.343191,0.14848 14.535833,1.8523 22.191881,0.10859 5.887467,-0.74207 8.779029,-1.52115 16.688274,-6.17975 4.113676,-2.95714 8.430283,-6.99024 11.143513,-10.98763 1.99911,-3.01488 3.86086,-7.52666 3.94701,-11.55351 -6.42937,-2.3912 -12.795115,-5.07084 -19.883966,-4.4707 -6.654311,0.30373 -12.271961,2.69717 -17.930998,5.00718 -4.070626,2.7875 -8.414753,5.23044 -11.184724,9.65665 -3.68959,4.94754 -5.41444,9.89509 -7.10143,14.84264 4.84238,-0.72702 9.336891,-3.90851 13.847778,-6.97425 4.950463,-4.60978 9.299879,-9.37102 11.539757,-14.66381 3.160052,-5.96446 3.552509,-11.78844 4.438363,-17.42544 0.512107,-3.70242 0.11508,-7.09938 -1.420261,-10.1139397 -4.986663,0.34655 -9.110919,2.2454697 -12.406841,4.9777897 -5.368465,3.1157 -8.572816,8.28364 -11.560406,13.79906 -4.21703,7.68957 -5.3572,15.37912 -5.50361,23.06869"
       id="path11921"
       transform="rotate(-47.872467,70.903214,43.585169)" /></g></svg>
